<svg width="64" height="64" viewBox="0 0 100 100" fill="none" xmlns="http://www.w3.org/2000/svg">
  <defs>
    <linearGradient id="bgGradient" x1="0%" y1="0%" x2="100%" y2="100%">
      <stop offset="0%" style="stop-color:#DC2626;stop-opacity:1" />
      <stop offset="50%" style="stop-color:#B91C1C;stop-opacity:1" />
      <stop offset="100%" style="stop-color:#7C2D12;stop-opacity:1" />
    </linearGradient>
    <filter id="shadow" x="-50%" y="-50%" width="200%" height="200%">
      <feDropShadow dx="0" dy="2" stdDeviation="3" flood-opacity="0.3"/>
    </filter>
  </defs>
  <rect width="100" height="100" rx="16" fill="url(#bgGradient)"/>
  <rect x="40" y="40" width="20" height="20" fill="#FEE2E2"/>
  <path d="M40 40 L30 30 L40 30 Z" fill="#FCA5A5"/>
  <path d="M60 40 L70 30 L60 30 Z" fill="#FCA5A5"/>
  <path d="M40 60 L30 70 L40 70 Z" fill="#FCA5A5"/>
  <path d="M60 60 L70 70 L60 70 Z" fill="#FCA5A5"/>
  <path d="M40 40 L30 40 L30 30 Z" fill="#EF4444"/>
  <path d="M60 40 L70 40 L70 30 Z" fill="#EF4444"/>
  <path d="M40 60 L30 60 L30 70 Z" fill="#EF4444"/>
  <path d="M60 60 L70 60 L70 70 Z" fill="#EF4444"/>
  <rect x="30" y="40" width="10" height="20" fill="#B91C1C"/>
  <rect x="60" y="40" width="10" height="20" fill="#B91C1C"/>
  <rect x="40" y="30" width="20" height="10" fill="#B91C1C"/>
  <rect x="40" y="60" width="20" height="10" fill="#B91C1C"/>
  <circle cx="50" cy="50" r="13" fill="#FBBF24" filter="url(#shadow)"/>
  <text x="50" y="54" font-size="10" fill="#7C2D12" text-anchor="middle" font-weight="bold" font-family="sans-serif" letter-spacing="0.5">QPP</text>
</svg>
